<svg version="1.2" xmlns="http://www.w3.org/2000/svg" viewBox="0 0 72 72" width="72" height="72">
	<title>image</title>
	<defs>
		<linearGradient id="g1" x2="1" gradientUnits="userSpaceOnUse" gradientTransform="matrix(0,99.831,-99.831,0,36.056,0)">
			<stop offset="0" stop-color="#000000" stop-opacity=".15"/>
			<stop offset="1" stop-color="#000000" stop-opacity="0"/>
		</linearGradient>
	</defs>
	<style>
		.s0 { opacity: .6;mix-blend-mode: overlay;fill: #ffffff } 
		.s1 { fill: none;stroke: url(#g1);stroke-width: 1.1 } 
		.s2 { fill: #000000 } 
	</style>
	<g>
		<path fill-rule="evenodd" class="s0" d="m36.1 71.3c-19.6 0-35.4-15.8-35.4-35.4 0-19.6 15.8-35.4 35.4-35.4 19.5 0 35.3 15.8 35.3 35.4 0 19.6-15.8 35.4-35.3 35.4z"/>
		<path fill-rule="evenodd" class="s1" d="m36.1 71.3c-19.6 0-35.4-15.8-35.4-35.4 0-19.6 15.8-35.4 35.4-35.4 19.5 0 35.3 15.8 35.3 35.4 0 19.6-15.8 35.4-35.3 35.4z"/>
	</g>
	<path class="s2" d="m32.9 45.4c0 1.8 1.4 3.2 3.2 3.2 1.7 0 3.1-1.4 3.1-3.2v-6.3h6.4c1.7 0 3.1-1.4 3.1-3.2 0-1.7-1.4-3.2-3.1-3.2h-6.4v-6.3c0-1.7-1.4-3.2-3.1-3.2-1.8 0-3.2 1.5-3.2 3.2v6.3h-6.4c-1.7 0-3.1 1.5-3.1 3.2 0 1.8 1.4 3.2 3.1 3.2h6.4z"/>
</svg>