<svg width="62" height="69" viewBox="0 0 62 69" fill="none" xmlns="http://www.w3.org/2000/svg">
<path d="M57.8919 24.3243C56.0189 24.3243 54.4865 25.4189 54.4865 26.7568V41.3514C54.4865 42.6892 56.0189 43.7838 57.8919 43.7838C59.7649 43.7838 61.2973 42.6892 61.2973 41.3514V26.7568C61.2973 25.4189 59.7649 24.3243 57.8919 24.3243ZM3.4054 29.1892C1.53243 29.1892 0 30.2838 0 31.6216V36.4865C0 37.8243 1.53243 38.9189 3.4054 38.9189C5.27838 38.9189 6.81081 37.8243 6.81081 36.4865V31.6216C6.81081 30.2838 5.27838 29.1892 3.4054 29.1892ZM17.027 19.4595C15.1541 19.4595 13.6216 20.5541 13.6216 21.8919V46.2162C13.6216 47.5541 15.1541 48.6486 17.027 48.6486C18.9 48.6486 20.4324 47.5541 20.4324 46.2162V21.8919C20.4324 20.5541 18.9 19.4595 17.027 19.4595ZM30.6487 0C28.7757 0 27.2432 1.09459 27.2432 2.43243V65.6757C27.2432 67.0135 28.7757 68.1081 30.6487 68.1081C32.5216 68.1081 34.0541 67.0135 34.0541 65.6757V2.43243C34.0541 1.09459 32.5216 0 30.6487 0ZM44.2703 9.72973C42.3973 9.72973 40.8649 10.8243 40.8649 12.1622V55.9459C40.8649 57.2838 42.3973 58.3784 44.2703 58.3784C46.1432 58.3784 47.6757 57.2838 47.6757 55.9459V12.1622C47.6757 10.8243 46.1432 9.72973 44.2703 9.72973Z" fill="black"/>
</svg>
